<svg xmlns="http://www.w3.org/2000/svg" viewBox="0 0 64 64"><defs><style>.a{fill:#fff;}</style></defs><path class="a" d="M15,0H49A15,15,0,0,1,64,15V49A15,15,0,0,1,49,64H15A15,15,0,0,1,0,49V15A15,15,0,0,1,15,0Z"/><path d="M62,16.67c.17-12-17-15.55-21.65-4.65H9a7,7,0,0,0-7,7V41.48c0,4.81,4.4,7.58,8.89,7v10l15-10H45.44a7,7,0,0,0,7-7V27.86A11.34,11.34,0,0,0,62,16.67ZM45.44,45H24.83L14.4,52V45c-3-.18-8.8,1.16-8.89-3.49V19A3.48,3.48,0,0,1,9,15.53H39.41a11.35,11.35,0,0,0,9.52,12.33V41.48A3.5,3.5,0,0,1,45.44,45ZM16.85,32.89H38.51V36.4H16.85Zm0-8.51H38.51v3.51H16.85Z" transform="translate(0)"/><path class="a" d="M50.68,25.6c11.73-.2,11.73-17.66,0-17.85C38.94,8,38.94,25.4,50.68,25.6Zm-3.25-6.11c.75-1.31,2.34,1.3,5.41-.32a.8.8,0,0,1,.77,1.4,6.14,6.14,0,0,1-2.93.73C49.63,21.25,46.83,21,47.43,19.49Zm-.1-7.73a1.06,1.06,0,0,1,1.12,1c-.07.95.42,2.78-1.12,2.78a1.07,1.07,0,0,1-1.13-1C46.27,13.6,45.79,11.76,47.33,11.76Zm6.69,0a1.07,1.07,0,0,1,1.13,1c-.07.95.41,2.78-1.13,2.78a1.06,1.06,0,0,1-1.12-1C53,13.6,52.49,11.76,54,11.76Z" transform="translate(0)"/></svg>